<?xml version="1.0" encoding="utf-8"?>
<!-- Svg Vector Icons : http://www.onlinewebfonts.com/icon -->
<!DOCTYPE svg PUBLIC "-//W3C//DTD SVG 1.1//EN" "http://www.w3.org/Graphics/SVG/1.1/DTD/svg11.dtd">
<svg version="1.1" xmlns="http://www.w3.org/2000/svg" xmlns:xlink="http://www.w3.org/1999/xlink" x="0px" y="0px" viewBox="0 0 1000 1000" enable-background="new 0 0 1000 1000" xml:space="preserve">
<metadata> Svg Vector Icons : http://www.onlinewebfonts.com/icon </metadata>
<g><path d="M24.9,899.2C5,921.5,5,953.8,24.9,973.6c22.4,22.4,54.8,22.4,74.6,0l865.7-864.7c19.8-19.8,19.8-52.1,0-74.6c-19.9-19.8-52.2-19.8-74.6,0L24.9,899.2z"/><path d="M900.5,963.7c19.8,19.8,54.8,19.8,74.6,0c19.8-19.8,19.8-52.1,0-74.5L109.5,24.4c-19.8-19.8-54.8-19.8-74.6,0C15,46.8,15,79.1,34.9,99L900.5,963.7z"/></g>
</svg>